<?xml version="1.0" encoding="UTF-8" standalone="no"?>
<svg
   xmlns:dc="http://purl.org/dc/elements/1.1/"
   xmlns:cc="http://creativecommons.org/ns#"
   xmlns:rdf="http://www.w3.org/1999/02/22-rdf-syntax-ns#"
   xmlns:svg="http://www.w3.org/2000/svg"
   xmlns="http://www.w3.org/2000/svg"
   xmlns:sodipodi="http://sodipodi.sourceforge.net/DTD/sodipodi-0.dtd"
   xmlns:inkscape="http://www.inkscape.org/namespaces/inkscape"
   width="2250"
   height="1350"
   id="svg2"
   version="1.1"
   inkscape:version="0.91 r13725"
   sodipodi:docname="Alle Sprachen.svg">
  <metadata
     id="metadata14">
    <rdf:RDF>
      <cc:Work
         rdf:about="">
        <dc:format>image/svg+xml</dc:format>
        <dc:type
           rdf:resource="http://purl.org/dc/dcmitype/StillImage" />
        <dc:title />
      </cc:Work>
    </rdf:RDF>
  </metadata>
  <defs
     id="defs12">
    <clipPath
       id="t">
      <path
         d="m 30,15 30,0 0,15 z m 0,0 0,15 -30,0 z M 30,15 0,15 0,0 Z m 0,0 0,-15 30,0 z"
         id="path5"
         inkscape:connector-curvature="0" />
    </clipPath>
  </defs>
  <sodipodi:namedview
     pagecolor="#ffffff"
     bordercolor="#666666"
     borderopacity="1"
     objecttolerance="10"
     gridtolerance="10"
     guidetolerance="10"
     inkscape:pageopacity="0"
     inkscape:pageshadow="2"
     inkscape:window-width="1920"
     inkscape:window-height="1011"
     id="namedview10"
     showgrid="false"
     fit-margin-top="0"
     fit-margin-left="0"
     fit-margin-right="0"
     fit-margin-bottom="0"
     inkscape:zoom="0.297995"
     inkscape:cx="3717.5533"
     inkscape:cy="535.57576"
     inkscape:window-x="0"
     inkscape:window-y="0"
     inkscape:window-maximized="1"
     inkscape:current-layer="svg2" />
  <rect
     width="1000"
     height="600"
     id="rect4"
     x="1250"
     y="0"
     style="fill:#c60c30" />
  <rect
     width="85.714294"
     height="600"
     x="1507.1428"
     id="rect6"
     y="0"
     style="fill:#ffffff" />
  <rect
     width="1000"
     height="85.714294"
     y="257.14282"
     id="rect8"
     x="1250"
     style="fill:#ffffff" />
  <rect
     style="fill:#000000"
     id="black_stripe"
     width="1000"
     height="600"
     y="0"
     x="0" />
  <rect
     style="fill:#dd0000"
     id="red_stripe"
     width="1000"
     height="400"
     y="200"
     x="0" />
  <rect
     style="fill:#ffce00"
     id="gold_stripe"
     width="1000"
     height="200"
     y="400"
     x="0" />
  <rect
     width="1000"
     height="600"
     id="rect4-3"
     x="0"
     y="750"
     style="fill:#21468b" />
  <rect
     width="1000"
     height="400"
     id="rect6-7"
     x="0"
     y="750"
     style="fill:#ffffff" />
  <rect
     width="1000"
     height="200"
     id="rect8-1"
     x="0"
     y="750"
     style="fill:#ae1c28" />
  <g
     id="g3047"
     transform="matrix(16.665603,0,0,19.978187,1248.3973,752.61605)">
    <path
       id="path3025"
       d="m 0.09807944,-0.11457048 0,30.00001048 59.99999956,0 0,-30.00000948 z"
       inkscape:connector-curvature="0"
       style="fill:#00247d" />
    <path
       inkscape:connector-curvature="0"
       id="path3016"
       d="m 0.09807944,-0.11457048 0,3.35937498 L 23.379329,14.88543 0.09807944,26.52606 l 0,3.35938 6.72499996,0 23.2749996,-11.625 23.27501,11.625 6.72499,0 0,-3.35938 -23.28125,-11.64062 23.28125,-11.6406345 0,-3.35937498 -6.72499,0 L 30.098079,11.51044 6.8230794,-0.11456948 l -6.72499996,0 z"
       style="fill:#ffffff" />
    <path
       sodipodi:nodetypes="ccccccccccccc"
       inkscape:connector-curvature="0"
       id="path3043"
       d="M 0.09616944,2.1480655 27.838629,15.99909 0.09616944,29.90181 l 4.47915996,0 27.7192796,-13.93713 27.80539,13.93713 0,-2.2568 -27.80539,-13.88547 27.80539,-13.89048448 -4.62631,0 L 27.838629,13.72901 0.09616944,-0.13094448 Z"
       style="fill:#cf142b;fill-opacity:1;stroke:none" />
    <path
       inkscape:connector-curvature="0"
       id="path3012"
       d="m 25.098079,-0.11456748 0,9.99999698 -24.99998956,0 0,10.0000005 24.99998956,0 0,10 10,0 0,-10 25,0 0,-10.0000005 -25,0 0,-9.99999698 -10,0 z"
       style="color:#000000;font-style:normal;font-variant:normal;font-weight:normal;font-stretch:normal;font-size:medium;line-height:normal;font-family:Sans;-inkscape-font-specification:Sans;text-indent:0;text-align:start;text-decoration:none;text-decoration-line:none;letter-spacing:normal;word-spacing:normal;text-transform:none;direction:ltr;block-progression:tb;writing-mode:lr-tb;baseline-shift:baseline;text-anchor:start;display:inline;overflow:visible;visibility:visible;fill:#ffffff;fill-opacity:1;fill-rule:nonzero;stroke:none;stroke-width:10;marker:none;enable-background:accumulate" />
    <path
       inkscape:connector-curvature="0"
       id="path3014"
       d="m 27.098089,-0.11456648 0,11.99999648 -26.99999956,0 0,6 26.99999956,0 0,12 6,0 0,-12 27,0 0,-6 -27,0 0,-11.99999648 -6,0 z"
       style="color:#000000;font-style:normal;font-variant:normal;font-weight:normal;font-stretch:normal;font-size:medium;line-height:normal;font-family:Sans;-inkscape-font-specification:Sans;text-indent:0;text-align:start;text-decoration:none;text-decoration-line:none;letter-spacing:normal;word-spacing:normal;text-transform:none;direction:ltr;block-progression:tb;writing-mode:lr-tb;baseline-shift:baseline;text-anchor:start;display:inline;overflow:visible;visibility:visible;fill:#cf142b;fill-opacity:1;fill-rule:nonzero;stroke:none;stroke-width:6;marker:none;enable-background:accumulate" />
  </g>
</svg>
