<?xml version="1.0" encoding="UTF-8" standalone="no"?>
<svg
   xmlns:dc="http://purl.org/dc/elements/1.1/"
   xmlns:cc="http://creativecommons.org/ns#"
   xmlns:rdf="http://www.w3.org/1999/02/22-rdf-syntax-ns#"
   xmlns:svg="http://www.w3.org/2000/svg"
   xmlns="http://www.w3.org/2000/svg"
   xmlns:sodipodi="http://sodipodi.sourceforge.net/DTD/sodipodi-0.dtd"
   xmlns:inkscape="http://www.inkscape.org/namespaces/inkscape"
   width="2250"
   height="1350"
   id="svg2"
   version="1.1"
   inkscape:version="0.91 r13725"
   sodipodi:docname="Alle Sprachen.svg">
  <metadata
     id="metadata14">
    <rdf:RDF>
      <cc:Work
         rdf:about="">
        <dc:format>image/svg+xml</dc:format>
        <dc:type
           rdf:resource="http://purl.org/dc/dcmitype/StillImage" />
        <dc:title></dc:title>
      </cc:Work>
    </rdf:RDF>
  </metadata>
  <defs
     id="defs12">
    <clipPath
       id="t">
      <path
         d="m 30,15 30,0 0,15 z m 0,0 0,15 -30,0 z M 30,15 0,15 0,0 Z m 0,0 0,-15 30,0 z"
         id="path5"
         inkscape:connector-curvature="0" />
    </clipPath>
  </defs>
  <sodipodi:namedview
     pagecolor="#ffffff"
     bordercolor="#666666"
     borderopacity="1"
     objecttolerance="10"
     gridtolerance="10"
     guidetolerance="10"
     inkscape:pageopacity="0"
     inkscape:pageshadow="2"
     inkscape:window-width="1920"
     inkscape:window-height="929"
     id="namedview10"
     showgrid="false"
     fit-margin-top="0"
     fit-margin-left="0"
     fit-margin-right="0"
     fit-margin-bottom="0"
     inkscape:zoom="0.297995"
     inkscape:cx="357.26364"
     inkscape:cy="535.57576"
     inkscape:window-x="0"
     inkscape:window-y="25"
     inkscape:window-maximized="1"
     inkscape:current-layer="svg2" />
  <rect
     width="1000"
     height="600"
     id="rect4"
     x="1250"
     y="0"
     style="fill:#c60c30" />
  <rect
     width="85.714294"
     height="600"
     x="1507.1428"
     id="rect6"
     y="0"
     style="fill:#ffffff" />
  <rect
     width="1000"
     height="85.714294"
     y="257.14282"
     id="rect8"
     x="1250"
     style="fill:#ffffff" />
  <rect
     style="fill:#000000"
     id="black_stripe"
     width="1000"
     height="600"
     y="0"
     x="0" />
  <rect
     style="fill:#dd0000"
     id="red_stripe"
     width="1000"
     height="400"
     y="200"
     x="0" />
  <rect
     style="fill:#ffce00"
     id="gold_stripe"
     width="1000"
     height="200"
     y="400"
     x="0" />
  <rect
     width="1000"
     height="600"
     id="rect4-3"
     x="0"
     y="750"
     style="fill:#21468b" />
  <rect
     width="1000"
     height="400"
     id="rect6-7"
     x="0"
     y="750"
     style="fill:#ffffff" />
  <rect
     width="1000"
     height="200"
     id="rect8-1"
     x="0"
     y="750"
     style="fill:#ae1c28" />
  <path
     d="m 1250,750 0,600 1000,0 0,-600 z"
     id="path7"
     inkscape:connector-curvature="0"
     style="fill:#00247d" />
  <path
     inkscape:connector-curvature="0"
     style="fill:#ffffff;stroke:none;stroke-width:110.22499847;stroke-miterlimit:4;stroke-dasharray:none"
     d="m 1250,750 0,62.1055 L 2141.1523,1350 2250,1350 2250,1286.9512 1360.4101,750 1250,750 Z"
     id="rect4766" />
  <path
     inkscape:connector-curvature="0"
     style="fill:#ffffff;stroke:none;stroke-width:110.22499847;stroke-miterlimit:4;stroke-dasharray:none"
     d="M 2142.9375,750 1250,1287.414 l 0,62.586 109.7675,0 L 2250,814.2148 2250,750 l -107.0625,0 z"
     id="rect4772-5" />
  <path
     d="M 0,0 60,30 M 60,0 0,30"
     clip-path="url(#t)"
     id="path11"
     inkscape:connector-curvature="0"
     transform="matrix(16.666667,0,0,20,1250,750)"
     style="stroke:#cf142b;stroke-width:4" />
  <path
     d="m 1750,750 0,600 m -500,-300 1000,0"
     id="path13"
     inkscape:connector-curvature="0"
     style="stroke:#ffffff;stroke-width:182.57417297" />
  <path
     d="m 1750,750 0,600 m -500,-300 1000,0"
     id="path15"
     inkscape:connector-curvature="0"
     style="stroke:#cf142b;stroke-width:109.54451752" />
</svg>
