<?xml version="1.0" encoding="UTF-8" standalone="no"?>
<svg
   xmlns:dc="http://purl.org/dc/elements/1.1/"
   xmlns:cc="http://creativecommons.org/ns#"
   xmlns:rdf="http://www.w3.org/1999/02/22-rdf-syntax-ns#"
   xmlns:svg="http://www.w3.org/2000/svg"
   xmlns="http://www.w3.org/2000/svg"
   xmlns:sodipodi="http://sodipodi.sourceforge.net/DTD/sodipodi-0.dtd"
   xmlns:inkscape="http://www.inkscape.org/namespaces/inkscape"
   viewBox="0 0 50 30"
   width="1000"
   height="600"
   id="svg2"
   version="1.1"
   inkscape:version="0.91 r13725"
   sodipodi:docname="Union Jack 5;3 ohne Überschneidung vom Rand.svg">
  <metadata
     id="metadata21">
    <rdf:RDF>
      <cc:Work
         rdf:about="">
        <dc:format>image/svg+xml</dc:format>
        <dc:type
           rdf:resource="http://purl.org/dc/dcmitype/StillImage" />
        <dc:title></dc:title>
      </cc:Work>
    </rdf:RDF>
  </metadata>
  <defs
     id="defs19" />
  <sodipodi:namedview
     pagecolor="#ffffff"
     bordercolor="#666666"
     borderopacity="1"
     objecttolerance="10"
     gridtolerance="10"
     guidetolerance="10"
     inkscape:pageopacity="0"
     inkscape:pageshadow="2"
     inkscape:window-width="1920"
     inkscape:window-height="929"
     id="namedview17"
     showgrid="false"
     inkscape:zoom="0.47494005"
     inkscape:cx="273.43294"
     inkscape:cy="3.2998667"
     inkscape:window-x="0"
     inkscape:window-y="25"
     inkscape:window-maximized="1"
     inkscape:current-layer="svg2" />
  <clipPath
     id="t">
    <path
       d="m 30,15 30,0 0,15 z m 0,0 0,15 -30,0 z M 30,15 0,15 0,0 Z m 0,0 0,-15 30,0 z"
       id="path5"
       inkscape:connector-curvature="0" />
  </clipPath>
  <path
     d="M 0,0 0,30 50,30 50,0 Z"
     id="path7"
     inkscape:connector-curvature="0"
     style="fill:#00247d" />
  <path
     inkscape:connector-curvature="0"
     style="fill:#ffffff;stroke:none;stroke-width:110.22499847;stroke-miterlimit:4;stroke-dasharray:none"
     d="M 0,0 0,3.105274 44.557617,30 50,30 50,26.847559 5.520508,0 0,0 Z"
     id="rect4766" />
  <path
     inkscape:connector-curvature="0"
     style="fill:#ffffff;stroke:none;stroke-width:110.22499847;stroke-miterlimit:4;stroke-dasharray:none"
     d="M 44.646875,0 0,26.870703 0,30 5.488379,30 50,3.210742 50,0 44.646875,0 Z"
     id="rect4772-5" />
  <path
     d="M 0,0 60,30 M 60,0 0,30"
     clip-path="url(#t)"
     id="path11"
     inkscape:connector-curvature="0"
     transform="scale(0.83333333,1)"
     style="stroke:#cf142b;stroke-width:4" />
  <path
     d="m 25,0 0,30 M 0,15 50,15"
     id="path13"
     inkscape:connector-curvature="0"
     style="stroke:#ffffff;stroke-width:9.12870884" />
  <path
     d="m 25,0 0,30 M 0,15 50,15"
     id="path15"
     inkscape:connector-curvature="0"
     style="stroke:#cf142b;stroke-width:5.47722578" />
</svg>
