<?xml version="1.0" encoding="UTF-8" standalone="no"?>
<!-- Created with Inkscape (http://www.inkscape.org/) -->

<svg
   width="250"
   height="250"
   viewBox="0 0 250 250"
   id="svg4342"
   version="1.1"
   inkscape:version="1.3 (0e150ed, 2023-07-21)"
   sodipodi:docname="app_icon_apple.svg"
   xmlns:inkscape="http://www.inkscape.org/namespaces/inkscape"
   xmlns:sodipodi="http://sodipodi.sourceforge.net/DTD/sodipodi-0.dtd"
   xmlns="http://www.w3.org/2000/svg"
   xmlns:svg="http://www.w3.org/2000/svg"
   xmlns:rdf="http://www.w3.org/1999/02/22-rdf-syntax-ns#"
   xmlns:cc="http://creativecommons.org/ns#"
   xmlns:dc="http://purl.org/dc/elements/1.1/">
  <defs
     id="defs4344" />
  <sodipodi:namedview
     id="base"
     pagecolor="#ffffff"
     bordercolor="#666666"
     borderopacity="1.0"
     inkscape:pageopacity="0.0"
     inkscape:pageshadow="2"
     inkscape:zoom="1.4"
     inkscape:cx="-1.4285714"
     inkscape:cy="7.5"
     inkscape:document-units="px"
     inkscape:current-layer="layer1"
     showgrid="false"
     units="px"
     inkscape:window-width="1440"
     inkscape:window-height="900"
     inkscape:window-x="0"
     inkscape:window-y="0"
     inkscape:window-maximized="0"
     inkscape:showpageshadow="2"
     inkscape:pagecheckerboard="0"
     inkscape:deskcolor="#d1d1d1"
     showguides="false" />
  <metadata
     id="metadata4347">
    <rdf:RDF>
      <cc:Work
         rdf:about="">
        <dc:format>image/svg+xml</dc:format>
        <dc:type
           rdf:resource="http://purl.org/dc/dcmitype/StillImage" />
      </cc:Work>
    </rdf:RDF>
  </metadata>
  <g
     inkscape:label="Ebene 1"
     inkscape:groupmode="layer"
     id="layer1"
     transform="translate(0,-802.36216)">
    <rect
       style="fill:#fefeff;fill-opacity:1;stroke-width:3.08517"
       id="rect1"
       width="250"
       height="250"
       x="0"
       y="802.36218" />
    <path
       style="fill:#001dff;fill-opacity:0.666667;fill-rule:nonzero;stroke:none;stroke-width:54.7725;stroke-miterlimit:4;stroke-dasharray:none;stroke-opacity:1"
       d="m 128.77389,833.6122 a 89.974867,86.944628 0 0 0 -89.973927,86.9437 89.974867,86.944628 0 0 0 20.42119,55.06298 L 31.25,1021.1122 90.676735,999.20792 a 89.974867,86.944628 0 0 0 38.097155,8.29188 89.974867,86.944628 0 0 0 89.97611,-86.9439 89.974867,86.944628 0 0 0 -89.97611,-86.9437 z"
       id="path4892"
       inkscape:connector-curvature="0" />
    <g
       style="clip-rule:evenodd;fill-rule:evenodd;image-rendering:optimizeQuality;shape-rendering:geometricPrecision;text-rendering:geometricPrecision"
       id="Ebene_x0020_1"
       transform="matrix(0.05152004,-0.05152004,0.05152004,0.05152004,39.796464,919.08837)"
       inkscape:label="Ebene 1">
      <metadata
         id="CorelCorpID_0Corel-Layer" />
      <path
         class="fil0"
         d="m 1527,237 c 0,0 -2,-58 -32,-104 0,0 -53,-19 -94,33 65,94 73,186 73,186 0,0 68,-38 53,-115 z"
         id="path10"
         inkscape:connector-curvature="0"
         style="fill:#b39231;fill-rule:nonzero" />
      <path
         class="fil1"
         d="m 1604,89 c 0,0 -44,-26 -109,44 30,46 32,104 32,104 0,0 91,-79 77,-148 z"
         id="path12"
         inkscape:connector-curvature="0"
         style="fill:#a3852d;fill-rule:nonzero" />
      <path
         class="fil2"
         d="m 1404,514 c 0,0 -25,-140 -151,-281 0,0 -93,-11 -132,77 205,246 223,403 223,403 0,0 102,-66 60,-199 z"
         id="path14"
         inkscape:connector-curvature="0"
         style="fill:#d6af38;fill-rule:nonzero" />
      <path
         class="fil3"
         d="m 1474,352 c 0,0 -8,-92 -73,-186 0,0 -45,-28 -148,67 126,141 151,281 151,281 0,0 94,-49 70,-162 z"
         id="path16"
         inkscape:connector-curvature="0"
         style="fill:#c29f34;fill-rule:nonzero" />
      <path
         class="fil4"
         d="m 665,926 c -9,379 -300,430 -483,694 12,-1 27,-8 47,-23 0,0 212,-285 670,-227 0,0 315,3 307,-356 0,0 -86,-339 -287,-631 0,0 -199,-69 -295,150 0,0 -2,0 -6,0 26,130 51,258 47,393 z"
         id="path18"
         inkscape:connector-curvature="0"
         style="fill:#ffd140;fill-rule:nonzero" />
      <path
         class="fil5"
         d="m 665,926 c 4,-135 -21,-263 -47,-393 -61,5 -546,65 -419,612 0,0 53,149 -34,341 0,0 -29,55 -27,95 0,0 7,44 44,39 183,-264 474,-315 483,-694 z"
         id="path20"
         inkscape:connector-curvature="0"
         style="fill:#a3852a;fill-rule:nonzero" />
      <path
         class="fil6"
         d="m 1344,713 c 0,0 -18,-157 -223,-403 0,0 -100,-35 -202,73 201,292 287,631 287,631 0,0 207,-92 138,-301 z"
         id="path22"
         inkscape:connector-curvature="0"
         style="fill:#ebc13c;fill-rule:nonzero" />
    </g>
    <rect
       width="48.713974"
       height="29.228388"
       id="rect4-4"
       x="717.0968"
       y="611.52606"
       style="clip-rule:evenodd;fill:#21468b;fill-rule:evenodd;stroke-width:0.75;image-rendering:optimizeQuality;shape-rendering:geometricPrecision;text-rendering:geometricPrecision"
       transform="rotate(45)" />
    <rect
       width="48.713974"
       height="19.48559"
       id="rect6-5"
       x="717.0968"
       y="611.52606"
       style="clip-rule:evenodd;fill:#ffffff;fill-rule:evenodd;stroke-width:0.75;image-rendering:optimizeQuality;shape-rendering:geometricPrecision;text-rendering:geometricPrecision"
       transform="rotate(45)" />
    <rect
       width="48.713974"
       height="9.742795"
       id="rect8-5"
       x="717.0968"
       y="611.52606"
       style="clip-rule:evenodd;fill:#ae1c28;fill-rule:evenodd;stroke-width:0.75;image-rendering:optimizeQuality;shape-rendering:geometricPrecision;text-rendering:geometricPrecision"
       transform="rotate(45)" />
    <rect
       id="black_stripe"
       width="48.713974"
       height="29.228388"
       y="791.79156"
       x="-585.54523"
       transform="rotate(-45)"
       style="clip-rule:evenodd;fill:#000000;fill-rule:evenodd;stroke-width:0.75;image-rendering:optimizeQuality;shape-rendering:geometricPrecision;text-rendering:geometricPrecision" />
    <rect
       id="red_stripe"
       width="48.713974"
       height="19.48559"
       y="801.53436"
       x="-585.54523"
       transform="rotate(-45)"
       style="clip-rule:evenodd;fill:#dd0000;fill-rule:evenodd;stroke-width:0.75;image-rendering:optimizeQuality;shape-rendering:geometricPrecision;text-rendering:geometricPrecision" />
    <rect
       id="gold_stripe"
       width="48.713974"
       height="9.742795"
       y="811.27722"
       x="-585.54523"
       transform="rotate(-45)"
       style="clip-rule:evenodd;fill:#ffce00;fill-rule:evenodd;stroke-width:0.75;image-rendering:optimizeQuality;shape-rendering:geometricPrecision;text-rendering:geometricPrecision" />
    <rect
       width="48.713974"
       height="29.228388"
       id="rect4"
       x="717.0968"
       y="481.6221"
       style="clip-rule:evenodd;fill:#c60c30;fill-rule:evenodd;stroke-width:0.75;image-rendering:optimizeQuality;shape-rendering:geometricPrecision;text-rendering:geometricPrecision"
       transform="rotate(45)" />
    <rect
       width="4.1754847"
       height="29.228388"
       x="729.62329"
       id="rect6"
       y="481.6221"
       style="clip-rule:evenodd;fill:#ffffff;fill-rule:evenodd;stroke-width:0.75;image-rendering:optimizeQuality;shape-rendering:geometricPrecision;text-rendering:geometricPrecision"
       transform="rotate(45)" />
    <rect
       width="48.713974"
       height="4.1754847"
       y="494.14859"
       id="rect8"
       x="717.0968"
       style="clip-rule:evenodd;fill:#ffffff;fill-rule:evenodd;stroke-width:0.75;image-rendering:optimizeQuality;shape-rendering:geometricPrecision;text-rendering:geometricPrecision"
       transform="rotate(45)" />
    <g
       style="clip-rule:evenodd;fill-rule:evenodd;image-rendering:optimizeQuality;shape-rendering:geometricPrecision;text-rendering:geometricPrecision"
       id="g3047"
       transform="matrix(0.57406313,-0.57406313,0.68816839,0.68816839,54.017148,882.21359)">
      <path
         id="path3025"
         d="M 0.09807944,-0.11457048 V 29.88544 H 60.098079 V -0.11456948 Z"
         inkscape:connector-curvature="0"
         style="fill:#00247d" />
      <path
         inkscape:connector-curvature="0"
         id="path3016"
         d="M 0.09807944,-0.11457048 V 3.2448045 L 23.379329,14.88543 0.09807944,26.52606 v 3.35938 H 6.8230794 l 23.2749996,-11.625 23.27501,11.625 h 6.72499 V 26.52606 L 36.816829,14.88544 60.098079,3.2448055 v -3.35937498 h -6.72499 L 30.098079,11.51044 6.8230794,-0.11456948 H 0.09807944 Z"
         style="fill:#ffffff" />
      <path
         sodipodi:nodetypes="ccccccccccccc"
         inkscape:connector-curvature="0"
         id="path3043"
         d="M 0.09616944,2.1480655 27.838629,15.99909 0.09616944,29.90181 H 4.5753294 L 32.294609,15.96468 60.099999,29.90181 v -2.2568 L 32.294609,13.75954 60.099999,-0.13094448 h -4.62631 L 27.838629,13.72901 0.09616944,-0.13094448 Z"
         style="fill:#cf142b;fill-opacity:1;stroke:none" />
      <path
         inkscape:connector-curvature="0"
         id="path3012"
         d="M 25.098079,-0.11456748 V 9.8854295 H 0.09808944 V 19.88543 H 25.098079 v 10 h 10 v -10 h 25 V 9.8854295 h -25 v -9.99999698 z"
         style="color:#000000;font-style:normal;font-variant:normal;font-weight:normal;font-stretch:normal;font-size:medium;line-height:normal;font-family:Sans;-inkscape-font-specification:Sans;text-indent:0;text-align:start;text-decoration:none;text-decoration-line:none;letter-spacing:normal;word-spacing:normal;text-transform:none;writing-mode:lr-tb;direction:ltr;baseline-shift:baseline;text-anchor:start;display:inline;overflow:visible;visibility:visible;fill:#ffffff;fill-opacity:1;fill-rule:nonzero;stroke:none;stroke-width:10;marker:none;enable-background:accumulate" />
      <path
         inkscape:connector-curvature="0"
         id="path3014"
         d="M 27.098089,-0.11456648 V 11.88543 H 0.09808944 v 6 H 27.098089 v 12 h 6 v -12 h 27 v -6 h -27 V -0.11456648 Z"
         style="color:#000000;font-style:normal;font-variant:normal;font-weight:normal;font-stretch:normal;font-size:medium;line-height:normal;font-family:Sans;-inkscape-font-specification:Sans;text-indent:0;text-align:start;text-decoration:none;text-decoration-line:none;letter-spacing:normal;word-spacing:normal;text-transform:none;writing-mode:lr-tb;direction:ltr;baseline-shift:baseline;text-anchor:start;display:inline;overflow:visible;visibility:visible;fill:#cf142b;fill-opacity:1;fill-rule:nonzero;stroke:none;stroke-width:6;marker:none;enable-background:accumulate" />
    </g>
  </g>
</svg>
