<?xml version="1.0" encoding="UTF-8" standalone="no"?>
<!-- Generator: Adobe Illustrator 16.0.0, SVG Export Plug-In . SVG Version: 6.00 Build 0)  -->

<svg
   xmlns:dc="http://purl.org/dc/elements/1.1/"
   xmlns:cc="http://creativecommons.org/ns#"
   xmlns:rdf="http://www.w3.org/1999/02/22-rdf-syntax-ns#"
   xmlns:svg="http://www.w3.org/2000/svg"
   xmlns="http://www.w3.org/2000/svg"
   xmlns:sodipodi="http://sodipodi.sourceforge.net/DTD/sodipodi-0.dtd"
   xmlns:inkscape="http://www.inkscape.org/namespaces/inkscape"
   version="1.1"
   id="Capa_1"
   x="0px"
   y="0px"
   width="259.07513"
   height="300"
   viewBox="0 0 259.07513 299.99999"
   xml:space="preserve"
   inkscape:version="0.91 r13725"
   sodipodi:docname="wordList.svg"><metadata
     id="metadata41"><rdf:RDF><cc:Work
         rdf:about=""><dc:format>image/svg+xml</dc:format><dc:type
           rdf:resource="http://purl.org/dc/dcmitype/StillImage" /><dc:title /></cc:Work></rdf:RDF></metadata><defs
     id="defs39" /><sodipodi:namedview
     pagecolor="#ffffff"
     bordercolor="#666666"
     borderopacity="1"
     objecttolerance="10"
     gridtolerance="10"
     guidetolerance="10"
     inkscape:pageopacity="0"
     inkscape:pageshadow="2"
     inkscape:window-width="958"
     inkscape:window-height="918"
     id="namedview37"
     showgrid="false"
     units="px"
     fit-margin-top="0"
     fit-margin-left="0"
     fit-margin-right="0"
     fit-margin-bottom="0"
     inkscape:zoom="1.9134294"
     inkscape:cx="89.038713"
     inkscape:cy="155.27616"
     inkscape:window-x="0"
     inkscape:window-y="25"
     inkscape:window-maximized="1"
     inkscape:current-layer="Capa_1" /><g
     id="g3"
     transform="matrix(0.60808017,0,0,0.60808017,-83.323925,0)"
     style="fill:#ffffff"><path
       d="m 355.457,370.873 c -1.523,-3.614 -4.288,-5.428 -8.285,-5.428 l -63.954,0 0,-356.31 c 0,-2.666 -0.858,-4.856 -2.569,-6.567 C 278.944,0.855 276.753,0 274.084,0 l -54.818,0 c -2.667,0 -4.854,0.855 -6.567,2.568 -1.711,1.711 -2.57,3.901 -2.57,6.567 l 0,356.314 -63.953,0 c -3.806,0 -6.567,1.81 -8.28,5.428 -1.521,3.613 -1.043,6.943 1.431,9.996 L 240.68,490.505 c 1.903,1.902 4.187,2.851 6.854,2.851 2.478,0 4.665,-0.948 6.567,-2.851 l 99.927,-109.632 c 2.475,-3.053 2.955,-6.383 1.429,-10 z"
       id="path5"
       inkscape:connector-curvature="0"
       style="fill:#ffffff" /></g><g
     id="g7"
     transform="translate(-137.02786,15.924402)" /><g
     id="g9"
     transform="translate(-137.02786,15.924402)" /><g
     id="g11"
     transform="translate(-137.02786,15.924402)" /><g
     id="g13"
     transform="translate(-137.02786,15.924402)" /><g
     id="g15"
     transform="translate(-137.02786,15.924402)" /><g
     id="g17"
     transform="translate(-137.02786,15.924402)" /><g
     id="g19"
     transform="translate(-137.02786,15.924402)" /><g
     id="g21"
     transform="translate(-137.02786,15.924402)" /><g
     id="g23"
     transform="translate(-137.02786,15.924402)" /><g
     id="g25"
     transform="translate(-137.02786,15.924402)" /><g
     id="g27"
     transform="translate(-137.02786,15.924402)" /><g
     id="g29"
     transform="translate(-137.02786,15.924402)" /><g
     id="g31"
     transform="translate(-137.02786,15.924402)" /><g
     id="g33"
     transform="translate(-137.02786,15.924402)" /><g
     id="g35"
     transform="translate(-137.02786,15.924402)" /><g
     style="font-style:normal;font-weight:normal;font-size:181.90965271px;line-height:125%;font-family:sans-serif;letter-spacing:0px;word-spacing:0px;fill:#ffffff;fill-opacity:1;stroke:none;stroke-width:1px;stroke-linecap:butt;stroke-linejoin:miter;stroke-opacity:1"
     id="text4149"><path
       d="m 223.47187,90.377507 -44.55959,0 -7.03182,20.133233 -28.64545,0 L 184.16765,8.2030892e-6 l 33.97483,0 L 259.07513,110.51074 l -28.64545,0 -6.95781,-20.133233 z m -37.45374,-20.503331 30.27387,0 -15.09992,-43.967432 -15.17395,43.967432 z"
       style="font-style:normal;font-variant:normal;font-weight:bold;font-stretch:normal;font-size:151.59141541px;font-family:sans-serif;-inkscape-font-specification:'sans-serif Bold';text-align:center;text-anchor:middle;fill:#ffffff"
       id="path4153" /><path
       d="m 154.70799,189.48928 92.89415,0 0,17.24648 -59.28941,71.72465 60.99186,0 0,21.5396 -96.29904,0 0,-17.24648 59.28941,-71.72465 -57.58697,0 0,-21.5396 z"
       style="font-style:normal;font-variant:normal;font-weight:bold;font-stretch:normal;font-size:151.59141541px;font-family:sans-serif;-inkscape-font-specification:'sans-serif Bold';text-align:center;text-anchor:middle;fill:#ffffff"
       id="path4155" /></g></svg>