<?xml version="1.0" encoding="UTF-8" standalone="no"?>
<!-- Created with Inkscape (http://www.inkscape.org/) -->

<svg
   width="250"
   height="250"
   viewBox="0 0 250 250"
   id="svg4342"
   version="1.1"
   inkscape:version="1.3 (0e150ed, 2023-07-21)"
   sodipodi:docname="app_icon.svg"
   inkscape:export-filename="../../ios/app_icon.png"
   inkscape:export-xdpi="196.608"
   inkscape:export-ydpi="196.608"
   xmlns:inkscape="http://www.inkscape.org/namespaces/inkscape"
   xmlns:sodipodi="http://sodipodi.sourceforge.net/DTD/sodipodi-0.dtd"
   xmlns="http://www.w3.org/2000/svg"
   xmlns:svg="http://www.w3.org/2000/svg"
   xmlns:rdf="http://www.w3.org/1999/02/22-rdf-syntax-ns#"
   xmlns:cc="http://creativecommons.org/ns#"
   xmlns:dc="http://purl.org/dc/elements/1.1/">
  <defs
     id="defs4344" />
  <sodipodi:namedview
     id="base"
     pagecolor="#ffffff"
     bordercolor="#666666"
     borderopacity="1.0"
     inkscape:pageopacity="0.0"
     inkscape:pageshadow="2"
     inkscape:zoom="1.4"
     inkscape:cx="-1.4285714"
     inkscape:cy="7.5"
     inkscape:document-units="px"
     inkscape:current-layer="layer1"
     showgrid="false"
     units="px"
     inkscape:window-width="2560"
     inkscape:window-height="1440"
     inkscape:window-x="1440"
     inkscape:window-y="-1980"
     inkscape:window-maximized="0"
     inkscape:showpageshadow="2"
     inkscape:pagecheckerboard="0"
     inkscape:deskcolor="#d1d1d1" />
  <metadata
     id="metadata4347">
    <rdf:RDF>
      <cc:Work
         rdf:about="">
        <dc:format>image/svg+xml</dc:format>
        <dc:type
           rdf:resource="http://purl.org/dc/dcmitype/StillImage" />
        <dc:title />
      </cc:Work>
    </rdf:RDF>
  </metadata>
  <g
     inkscape:label="Ebene 1"
     inkscape:groupmode="layer"
     id="layer1"
     transform="translate(0,-802.36216)">
    <path
       style="fill:#001dff;fill-opacity:0.66666667;fill-rule:nonzero;stroke:none;stroke-width:73.02999878;stroke-miterlimit:4;stroke-dasharray:none;stroke-opacity:1"
       d="M 130.03185,802.3622 A 119.96649,115.92617 0 0 0 10.066617,918.28713 119.96649,115.92617 0 0 0 37.29487,991.70444 L 0,1052.3622 79.235646,1023.1565 A 119.96649,115.92617 0 0 0 130.03185,1034.2123 119.96649,115.92617 0 0 0 250,918.28713 119.96649,115.92617 0 0 0 130.03185,802.3622 Z"
       id="path4892"
       inkscape:connector-curvature="0" />
    <g
       style="clip-rule:evenodd;fill-rule:evenodd;image-rendering:optimizeQuality;shape-rendering:geometricPrecision;text-rendering:geometricPrecision"
       id="Ebene_x0020_1"
       transform="matrix(0.05152004,-0.05152004,0.05152004,0.05152004,39.796464,919.08837)"
       inkscape:label="Ebene 1">
      <metadata
         id="CorelCorpID_0Corel-Layer" />
      <path
         class="fil0"
         d="m 1527,237 c 0,0 -2,-58 -32,-104 0,0 -53,-19 -94,33 65,94 73,186 73,186 0,0 68,-38 53,-115 z"
         id="path10"
         inkscape:connector-curvature="0"
         style="fill:#b39231;fill-rule:nonzero" />
      <path
         class="fil1"
         d="m 1604,89 c 0,0 -44,-26 -109,44 30,46 32,104 32,104 0,0 91,-79 77,-148 z"
         id="path12"
         inkscape:connector-curvature="0"
         style="fill:#a3852d;fill-rule:nonzero" />
      <path
         class="fil2"
         d="m 1404,514 c 0,0 -25,-140 -151,-281 0,0 -93,-11 -132,77 205,246 223,403 223,403 0,0 102,-66 60,-199 z"
         id="path14"
         inkscape:connector-curvature="0"
         style="fill:#d6af38;fill-rule:nonzero" />
      <path
         class="fil3"
         d="m 1474,352 c 0,0 -8,-92 -73,-186 0,0 -45,-28 -148,67 126,141 151,281 151,281 0,0 94,-49 70,-162 z"
         id="path16"
         inkscape:connector-curvature="0"
         style="fill:#c29f34;fill-rule:nonzero" />
      <path
         class="fil4"
         d="m 665,926 c -9,379 -300,430 -483,694 12,-1 27,-8 47,-23 0,0 212,-285 670,-227 0,0 315,3 307,-356 0,0 -86,-339 -287,-631 0,0 -199,-69 -295,150 0,0 -2,0 -6,0 26,130 51,258 47,393 z"
         id="path18"
         inkscape:connector-curvature="0"
         style="fill:#ffd140;fill-rule:nonzero" />
      <path
         class="fil5"
         d="m 665,926 c 4,-135 -21,-263 -47,-393 -61,5 -546,65 -419,612 0,0 53,149 -34,341 0,0 -29,55 -27,95 0,0 7,44 44,39 183,-264 474,-315 483,-694 z"
         id="path20"
         inkscape:connector-curvature="0"
         style="fill:#a3852a;fill-rule:nonzero" />
      <path
         class="fil6"
         d="m 1344,713 c 0,0 -18,-157 -223,-403 0,0 -100,-35 -202,73 201,292 287,631 287,631 0,0 207,-92 138,-301 z"
         id="path22"
         inkscape:connector-curvature="0"
         style="fill:#ebc13c;fill-rule:nonzero" />
    </g>
    <rect
       width="64.951965"
       height="38.971184"
       id="rect4-4"
       x="708.08496"
       y="626.24951"
       style="clip-rule:evenodd;fill:#21468b;fill-rule:evenodd;image-rendering:optimizeQuality;shape-rendering:geometricPrecision;text-rendering:geometricPrecision"
       transform="matrix(0.70710678,0.70710678,-0.70710678,0.70710678,0,0)" />
    <rect
       width="64.951965"
       height="25.980787"
       id="rect6-5"
       x="708.08496"
       y="626.24951"
       style="clip-rule:evenodd;fill:#ffffff;fill-rule:evenodd;image-rendering:optimizeQuality;shape-rendering:geometricPrecision;text-rendering:geometricPrecision"
       transform="matrix(0.70710678,0.70710678,-0.70710678,0.70710678,0,0)" />
    <rect
       width="64.951965"
       height="12.990394"
       id="rect8-5"
       x="708.08496"
       y="626.24951"
       style="clip-rule:evenodd;fill:#ae1c28;fill-rule:evenodd;image-rendering:optimizeQuality;shape-rendering:geometricPrecision;text-rendering:geometricPrecision"
       transform="matrix(0.70710678,0.70710678,-0.70710678,0.70710678,0,0)" />
    <rect
       id="black_stripe"
       width="64.951965"
       height="38.971184"
       y="807.67792"
       x="-591.6084"
       transform="matrix(0.70710678,-0.70710678,0.70710678,0.70710678,0,0)"
       style="clip-rule:evenodd;fill:#000000;fill-rule:evenodd;image-rendering:optimizeQuality;shape-rendering:geometricPrecision;text-rendering:geometricPrecision" />
    <rect
       id="red_stripe"
       width="64.951965"
       height="25.980787"
       y="820.66833"
       x="-591.6084"
       transform="matrix(0.70710678,-0.70710678,0.70710678,0.70710678,0,0)"
       style="clip-rule:evenodd;fill:#dd0000;fill-rule:evenodd;image-rendering:optimizeQuality;shape-rendering:geometricPrecision;text-rendering:geometricPrecision" />
    <rect
       id="gold_stripe"
       width="64.951965"
       height="12.990394"
       y="833.65881"
       x="-591.6084"
       transform="matrix(0.70710678,-0.70710678,0.70710678,0.70710678,0,0)"
       style="clip-rule:evenodd;fill:#ffce00;fill-rule:evenodd;image-rendering:optimizeQuality;shape-rendering:geometricPrecision;text-rendering:geometricPrecision" />
    <rect
       width="64.951965"
       height="38.971184"
       id="rect4"
       x="708.08496"
       y="453.04422"
       style="clip-rule:evenodd;fill:#c60c30;fill-rule:evenodd;image-rendering:optimizeQuality;shape-rendering:geometricPrecision;text-rendering:geometricPrecision"
       transform="matrix(0.70710678,0.70710678,-0.70710678,0.70710678,0,0)" />
    <rect
       width="5.5673127"
       height="38.971184"
       x="724.78693"
       id="rect6"
       y="453.04422"
       style="clip-rule:evenodd;fill:#ffffff;fill-rule:evenodd;image-rendering:optimizeQuality;shape-rendering:geometricPrecision;text-rendering:geometricPrecision"
       transform="matrix(0.70710678,0.70710678,-0.70710678,0.70710678,0,0)" />
    <rect
       width="64.951965"
       height="5.5673127"
       y="469.74622"
       id="rect8"
       x="708.08496"
       style="clip-rule:evenodd;fill:#ffffff;fill-rule:evenodd;image-rendering:optimizeQuality;shape-rendering:geometricPrecision;text-rendering:geometricPrecision"
       transform="matrix(0.70710678,0.70710678,-0.70710678,0.70710678,0,0)" />
    <g
       style="clip-rule:evenodd;fill-rule:evenodd;image-rendering:optimizeQuality;shape-rendering:geometricPrecision;text-rendering:geometricPrecision"
       id="g3047"
       transform="matrix(0.76541751,-0.76541751,0.91755785,0.91755785,30.356198,867.16406)">
      <path
         id="path3025"
         d="m 0.09807944,-0.11457048 0,30.00001048 59.99999956,0 0,-30.00000948 z"
         inkscape:connector-curvature="0"
         style="fill:#00247d" />
      <path
         inkscape:connector-curvature="0"
         id="path3016"
         d="m 0.09807944,-0.11457048 0,3.35937498 L 23.379329,14.88543 0.09807944,26.52606 l 0,3.35938 6.72499996,0 23.2749996,-11.625 23.27501,11.625 6.72499,0 0,-3.35938 -23.28125,-11.64062 23.28125,-11.6406345 0,-3.35937498 -6.72499,0 L 30.098079,11.51044 6.8230794,-0.11456948 l -6.72499996,0 z"
         style="fill:#ffffff" />
      <path
         sodipodi:nodetypes="ccccccccccccc"
         inkscape:connector-curvature="0"
         id="path3043"
         d="M 0.09616944,2.1480655 27.838629,15.99909 0.09616944,29.90181 l 4.47915996,0 27.7192796,-13.93713 27.80539,13.93713 0,-2.2568 -27.80539,-13.88547 27.80539,-13.89048448 -4.62631,0 L 27.838629,13.72901 0.09616944,-0.13094448 Z"
         style="fill:#cf142b;fill-opacity:1;stroke:none" />
      <path
         inkscape:connector-curvature="0"
         id="path3012"
         d="m 25.098079,-0.11456748 0,9.99999698 -24.99998956,0 0,10.0000005 24.99998956,0 0,10 10,0 0,-10 25,0 0,-10.0000005 -25,0 0,-9.99999698 -10,0 z"
         style="color:#000000;font-style:normal;font-variant:normal;font-weight:normal;font-stretch:normal;font-size:medium;line-height:normal;font-family:Sans;-inkscape-font-specification:Sans;text-indent:0;text-align:start;text-decoration:none;text-decoration-line:none;letter-spacing:normal;word-spacing:normal;text-transform:none;direction:ltr;block-progression:tb;writing-mode:lr-tb;baseline-shift:baseline;text-anchor:start;display:inline;overflow:visible;visibility:visible;fill:#ffffff;fill-opacity:1;fill-rule:nonzero;stroke:none;stroke-width:10;marker:none;enable-background:accumulate" />
      <path
         inkscape:connector-curvature="0"
         id="path3014"
         d="m 27.098089,-0.11456648 0,11.99999648 -26.99999956,0 0,6 26.99999956,0 0,12 6,0 0,-12 27,0 0,-6 -27,0 0,-11.99999648 -6,0 z"
         style="color:#000000;font-style:normal;font-variant:normal;font-weight:normal;font-stretch:normal;font-size:medium;line-height:normal;font-family:Sans;-inkscape-font-specification:Sans;text-indent:0;text-align:start;text-decoration:none;text-decoration-line:none;letter-spacing:normal;word-spacing:normal;text-transform:none;direction:ltr;block-progression:tb;writing-mode:lr-tb;baseline-shift:baseline;text-anchor:start;display:inline;overflow:visible;visibility:visible;fill:#cf142b;fill-opacity:1;fill-rule:nonzero;stroke:none;stroke-width:6;marker:none;enable-background:accumulate" />
    </g>
  </g>
</svg>
